<svg width="22" height="22" viewBox="0 0 22 22" fill="none" xmlns="http://www.w3.org/2000/svg">
<g clip-path="url(#clip0)">
<path fill-rule="evenodd" clip-rule="evenodd" d="M22.0005 11.0003C22.0006 10.4122 21.858 9.83285 21.5847 9.31211C21.3114 8.79137 20.9158 8.3448 20.4317 8.0108C20.1833 7.84099 19.9898 7.60254 19.8747 7.32456C19.7596 7.04658 19.7279 6.7411 19.7836 6.44542C19.8903 5.86645 19.8547 5.27023 19.6798 4.70808C19.5049 4.14594 19.1961 3.63471 18.7798 3.21843C18.3635 2.80215 17.8523 2.49328 17.2901 2.31842C16.728 2.14356 16.1318 2.10794 15.5528 2.21465C15.2571 2.27027 14.9516 2.2386 14.6737 2.1235C14.3957 2.00841 14.1572 1.81486 13.9874 1.56649C13.6533 1.08253 13.2067 0.686905 12.686 0.41362C12.1653 0.140335 11.586 -0.00244141 10.9979 -0.00244141C10.4099 -0.00244141 9.83058 0.140335 9.30987 0.41362C8.78915 0.686905 8.34256 1.08253 8.00848 1.56649C7.83867 1.81486 7.60022 2.00841 7.32224 2.1235C7.04426 2.2386 6.73878 2.27027 6.4431 2.21465C5.86413 2.10794 5.26791 2.14356 4.70576 2.31842C4.14362 2.49328 3.63239 2.80215 3.21611 3.21843C2.79983 3.63471 2.49096 4.14594 2.3161 4.70808C2.14124 5.27023 2.10562 5.86645 2.21233 6.44542C2.26795 6.7411 2.23628 7.04658 2.12118 7.32456C2.00609 7.60254 1.81254 7.84099 1.56418 8.0108C1.08021 8.34488 0.684586 8.79147 0.411301 9.31219C0.138016 9.8329 -0.00476074 10.4122 -0.00476074 11.0003C-0.00476074 11.5883 0.138016 12.1676 0.411301 12.6883C0.684586 13.2091 1.08021 13.6556 1.56418 13.9897C1.81254 14.1595 2.00609 14.398 2.12118 14.676C2.23628 14.954 2.26795 15.2594 2.21233 15.5551C2.10562 16.1341 2.14124 16.7303 2.3161 17.2924C2.49096 17.8546 2.79983 18.3658 3.21611 18.7821C3.63239 19.1984 4.14362 19.5073 4.70576 19.6821C5.26791 19.857 5.86413 19.8926 6.4431 19.7859C6.73878 19.7303 7.04426 19.7619 7.32224 19.877C7.60022 19.9921 7.83867 20.1857 8.00848 20.434C8.34256 20.918 8.78915 21.3136 9.30987 21.5869C9.83058 21.8602 10.4099 22.003 10.9979 22.003C11.586 22.003 12.1653 21.8602 12.686 21.5869C13.2067 21.3136 13.6533 20.918 13.9874 20.434C14.1572 20.1857 14.3957 19.9921 14.6737 19.877C14.9516 19.7619 15.2571 19.7303 15.5528 19.7859C16.1318 19.8926 16.728 19.857 17.2901 19.6821C17.8523 19.5073 18.3635 19.1984 18.7798 18.7821C19.1961 18.3658 19.5049 17.8546 19.6798 17.2924C19.8547 16.7303 19.8903 16.1341 19.7836 15.5551C19.7279 15.2594 19.7596 14.954 19.8747 14.676C19.9898 14.398 20.1833 14.1595 20.4317 13.9897C20.9158 13.6557 21.3114 13.2092 21.5847 12.6884C21.858 12.1677 22.0006 11.5884 22.0005 11.0003Z" fill="#009A91"/>
<path fill-rule="evenodd" clip-rule="evenodd" d="M9.97276 14.0233L6.76923 10.8189L8.08838 9.49974L9.97276 11.3841L13.7424 7.61536L15.0615 8.93451L9.97276 14.0233Z" fill="white"/>
</g>
<defs>
<clipPath id="clip0">
<rect width="22" height="22" fill="white"/>
</clipPath>
</defs>
</svg>
